<?xml version="1.0" encoding="utf-8"?>
<?xml-stylesheet type="text/xsl" href="rss1.xsl"?>
<rss version="2.0" xmlns:atom="http://www.w3.org/2005/Atom" xmlns:content="http://purl.org/rss/1.0/modules/content/" xmlns:dc="http://purl.org/dc/elements/1.1/" xmlns:media="http://search.yahoo.com/mrss/">
<channel>
 <title>Getty</title>
 <link>http://www.gettyimg.com/</link>
 <atom:link href="http://www.gettyimg.com/" rel="self" type="application/rss+xml" />

 
                <item>
                <title><![CDATA[【Requests】[REQ AUD] - Idina Menzel 'Drama Queen' Lossless Album]]></title>
                <link><![CDATA[https://sharemania.us/threads/idina-menzel-drama-queen-lossless-album.228412/]]></link>
                <description><![CDATA[<article>
<blockquote class="messageText SelectQuoteContainer ugc baseHtml">
Hi,<br>
<br>
Does anyone have the following release in lossless?<br>
<br>
<a href="https://www.qobuz.com/us-en/album/drama-queen-idina-menzel/zpjzz82b5aqsb" target="_blank" class="externalLink" rel="nofollow">https://www.qobuz.com/us-en/album/drama-queen-idina-menzel/zpjzz82b5aqsb</a><br>
<br>
Thank you in advance.
<div class="messageTextEndMarker">&nbsp;</div>
</blockquote>
</article>]]></description>
                <author><![CDATA[Skribble]]></author>
                </item>

                
                <item>
                <title><![CDATA[【MASTER &amp; MASTER RIP】MASTER - Omar Apollo - Kamikaze |Master 1080|]]></title>
                <link><![CDATA[https://sharemania.us/threads/omar-apollo-kamikaze-master-1080.228410/]]></link>
                <description><![CDATA[<article>
<blockquote class="messageText SelectQuoteContainer ugc baseHtml">
<div style="text-align: center"><img src="https://i.imgur.com/o9HRlem.gif" class="bbCodeImage LbImage" alt="[​IMG]" data-url="https://i.imgur.com/o9HRlem.gif" style=""><br>
<br>
​</div>
<div class="ToggleTriggerAnchor bbCodeSpoilerContainer">
<button type="button" class="button bbCodeSpoilerButton ToggleTrigger Tooltip JsOnly" data-target="> .SpoilerTarget"><span>Spoiler: <span class="SpoilerTitle">MASTER</span></span></button>
<div class="SpoilerTarget bbCodeSpoilerText">
<div class="bbCodeBlock bbCodeCode">
<div class="type">Code:</div>
<pre>Format                                   : MPEG-4
Format profile                           : Base Media / Version 2
Codec ID                                 : mp42 (mp42/mp41)
File size                                : 1.01 GiB
Duration                                 : 4 min 50 s
Overall bit rate mode                    : Variable
Overall bit rate                         : 30.0 Mb/s
Encoded date                             : UTC 2021-05-17 23:11:50
Tagged date                              : UTC 2021-05-17 23:13:52
TIM                                      : 00:00:00:00
TSC                                      : 24
TSZ                                      : 1

Video
ID                                       : 1
Format                                   : AVC
Format/Info                              : Advanced Video Codec
Format profile                           : Main@L4.1
Format settings                          : CABAC / 2 Ref Frames
Format settings, CABAC                   : Yes
Format settings, Reference frames        : 2 frames
Format settings, GOP                     : M=2, N=48
Codec ID                                 : avc1
Codec ID/Info                            : Advanced Video Coding
Duration                                 : 4 min 50 s
Bit rate mode                            : Variable
Bit rate                                 : 29.7 Mb/s
Maximum bit rate                         : 768 kb/s
Width                                    : 1 920 pixels
Height                                   : 1 080 pixels
Display aspect ratio                     : 16:9
Frame rate mode                          : Constant
Frame rate                               : 24.000 FPS
Color space                              : YUV
Chroma subsampling                       : 4:2:0
Bit depth                                : 8 bits
Scan type                                : Progressive
Bits/(Pixel*Frame)                       : 0.597
Stream size                              : 1.00 GiB (99%)
Language                                 : English
Encoded date                             : UTC 2021-05-17 23:11:50
Tagged date                              : UTC 2021-05-17 23:11:50
Color range                              : Limited
Color primaries                          : BT.709
Transfer characteristics                 : BT.709
Matrix coefficients                      : BT.709
Codec configuration box                  : avcC

Audio
ID                                       : 2
Format                                   : AAC LC
Format/Info                              : Advanced Audio Codec Low Complexity
Codec ID                                 : mp4a-40-2
Duration                                 : 4 min 50 s
Source duration                          : 4 min 50 s
Bit rate mode                            : Variable
Bit rate                                 : 317 kb/s
Maximum bit rate                         : 461 kb/s
Channel(s)                               : 2 channels
Channel layout                           : L R
Sampling rate                            : 48.0 kHz
Frame rate                               : 46.875 FPS (1024 SPF)
Compression mode                         : Lossy
Stream size                              : 11.0 MiB (1%)
Source stream size                       : 11.0 MiB (1%)
Language                                 : English
Encoded date                             : UTC 2021-05-17 23:11:51
Tagged date                              : UTC 2021-05-17 23:11:51</pre>
</div><div style="text-align: center">​</div></div>
</div><div style="text-align: center"><br>
<br>
<br>
<div class="bbCodeBlock bbCodeVfcHH HiddenContent">
<div class="attribution type">Hidden Content:</div>
<blockquote>You must reply before you can see the hidden data contained here.</blockquote>
</div></div>
<div class="messageTextEndMarker">&nbsp;</div>
</blockquote>
</article>]]></description>
                <author><![CDATA[fstambuk]]></author>
                </item>

                
                <item>
                <title><![CDATA[【HD Live Performances】WEB-RiP - Foster The People - Austin City Limits (2017) 1080p]]></title>
                <link><![CDATA[https://sharemania.us/threads/foster-the-people-austin-city-limits-2017-1080p.228411/]]></link>
                <description><![CDATA[<article>
<blockquote class="messageText SelectQuoteContainer ugc baseHtml">
Foster the People<br>
Austin City Limits<br>
Zilker Park, Austin, TX, USA<br>
Oct.6, 2017<br>
<br>
Setlist<br>
Houdini<br>
Call It What You Want<br>
Pay the Man<br>
Doing It for the Money<br>
Helena Beat<br>
Don't Stop (Color on the Walls)<br>
Lotus Eater<br>
Blitzkrieg Bop (Ramones cover)<br>
Life on the Nickel<br>
Coming of Age<br>
Sit Next To Me<br>
Loyal Like Sid &amp; Nancy<br>
Love (John Lennon cover)<br>
<img src="https://i.imgur.com/hbxRPxN.jpg" class="bbCodeImage LbImage" alt="[​IMG]" data-url="https://i.imgur.com/hbxRPxN.jpg" style=""><br>
<img src="https://i.imgur.com/zB6nT9Z.jpg" class="bbCodeImage LbImage" alt="[​IMG]" data-url="https://i.imgur.com/zB6nT9Z.jpg" style=""><br>
<img src="https://i.imgur.com/LEWdYz3.jpg" class="bbCodeImage LbImage" alt="[​IMG]" data-url="https://i.imgur.com/LEWdYz3.jpg" style=""><br>
<img src="https://i.imgur.com/FCpXeyH.jpg" class="bbCodeImage LbImage" alt="[​IMG]" data-url="https://i.imgur.com/FCpXeyH.jpg" style=""><br>
This is a request from <b><span style="font-size: 22px">thedhmusican</span></b><br>
<br>
<div class="bbCodeBlock bbCodeVfcHH HiddenContent">
<div class="attribution type">Hidden Content:</div>
<blockquote>You must reply before you can see the hidden data contained here.</blockquote>
</div>
<div class="messageTextEndMarker">&nbsp;</div>
</blockquote>
</article>]]></description>
                <author><![CDATA[Nero]]></author>
                </item>

                </channel></rss>